<svg preserveAspectRatio="none" width="100%" height="100%" overflow="visible" style="display: block;" viewBox="0 0 1761.97 1298.92" fill="none" xmlns="http://www.w3.org/2000/svg">
<g id="Vector" opacity="0.4" filter="url(#filter0_f_2001_405)">
<path d="M200 276.993C200 234.471 234.47 200 276.99 200H995.922C1038.44 200 1072.91 234.471 1072.91 276.993V574.381C1072.91 575.071 1072.9 575.759 1072.88 576.445C1072.8 579.519 1076.64 581.448 1078.88 579.34C1080.96 577.374 1084.43 578.907 1084.53 581.773C1086.07 627.274 1109.15 647.482 1159.28 647.574C1160.01 647.554 1160.74 647.544 1161.47 647.544H1484.98C1527.5 647.544 1561.97 682.015 1561.97 724.537V1021.92C1561.97 1064.45 1527.5 1098.92 1484.98 1098.92H1161.47C1118.95 1098.92 1084.48 1064.45 1084.48 1021.92V724.537C1084.48 723.35 1084.51 722.17 1084.56 720.997C1084.56 720.979 1084.54 720.968 1084.53 720.981C1084.51 720.994 1084.49 720.983 1084.49 720.965C1085.22 676.135 1067.63 653.366 1027.3 648.511C1021.96 647.868 1016.6 648.762 1011.33 649.832C1006.35 650.843 1001.2 651.373 995.922 651.373H276.99C234.47 651.373 200 616.903 200 574.381V276.993Z" fill="var(--fill-0, #CBC7FF)"/>
</g>
<defs>
<filter id="filter0_f_2001_405" x="0" y="0" width="1761.97" height="1298.92" filterUnits="userSpaceOnUse" color-interpolation-filters="sRGB">
<feFlood flood-opacity="0" result="BackgroundImageFix"/>
<feBlend mode="normal" in="SourceGraphic" in2="BackgroundImageFix" result="shape"/>
<feGaussianBlur stdDeviation="100" result="effect1_foregroundBlur_2001_405"/>
</filter>
</defs>
</svg>
